<?xml version="1.0" encoding="UTF-8"?>
<svg width="26px" height="28px" viewBox="0 0 26 28" version="1.1" xmlns="http://www.w3.org/2000/svg" xmlns:xlink="http://www.w3.org/1999/xlink">
    <!-- Generator: Sketch 52 (66869) - http://www.bohemiancoding.com/sketch -->
    <title>购物车</title>
    <desc>Created with Sketch.</desc>
    <defs>
        <polygon id="path-1" points="0.00216138329 0.0100864553 24.9827089 0.0100864553 24.9827089 21.2002161 0.00216138329 21.2002161"></polygon>
        <linearGradient x1="0%" y1="0%" x2="100%" y2="100%" id="linearGradient-3">
            <stop stop-color="#726EF6" offset="0%"></stop>
            <stop stop-color="#4E78EC" offset="100%"></stop>
        </linearGradient>
    </defs>
    <g id="Page-1" stroke="none" stroke-width="1" fill="none" fill-rule="evenodd">
        <g id="404" transform="translate(-1086.000000, -16.000000)">
            <g id="购物车" transform="translate(1084.000000, 15.000000)">
                <g id="icon-test" transform="translate(2.500000, 1.833573)">
                    <g id="分组">
                        <mask id="mask-2" fill="white">
                            <use xlink:href="#path-1"></use>
                        </mask>
                        <g id="Clip-2"></g>
                        <path d="M23.7320245,6.9870317 L5.4235951,6.9870317 L5.4235951,0.159942363 L5.25079251,0.208933718 L5.25079251,0.0100864553 L0,0.0100864553 L0,1.21473343 L4.37467579,1.21473343 L4.37467579,6.98998559 L4.35443084,6.98998559 L4.35443084,15.2032421 C4.35443084,18.5144092 7.04038184,21.2002161 10.351549,21.2002161 L23.7320245,21.2002161 C24.4236311,21.2002161 24.9827089,20.6411744 24.9827089,19.9495677 L24.9827089,8.24063401 C24.9827089,7.54902738 24.4236311,6.9870317 23.7320245,6.9870317 Z M21.5792147,16.5375 L22.4841499,16.5375 L22.4841499,9.30403458 L21.5792147,9.30403458 L21.5792147,16.5375 Z M22.0317723,19.2435879 C21.6974063,19.2435879 21.4293588,18.9725504 21.4293588,18.6411744 C21.4293588,18.3069885 21.7002161,18.0389049 22.0317723,18.0389049 C22.3659582,18.0389049 22.6340058,18.3097983 22.6340058,18.6411744 C22.6340058,18.9755043 22.3631484,19.2435879 22.0317723,19.2435879 Z" id="Fill-1" fill="url(#linearGradient-3)" mask="url(#mask-2)"></path>
                        <circle id="椭圆形" fill-opacity="0.1" fill="#FFFFFF" mask="url(#mask-2)" cx="2.98270893" cy="1.33088884" r="22"></circle>
                        <circle id="椭圆形-copy" fill-opacity="0.1" fill="#FFFFFF" mask="url(#mask-2)" cx="-12.4598132" cy="10.6051513" r="22"></circle>
                    </g>
                    <polygon id="Fill-3" fill="#FFFFFF" points="21.5503602 16.5375 22.4552954 16.5375 22.4552954 9.30403458 21.5503602 9.30403458"></polygon>
                    <path d="M21.4005043,18.6411744 C21.4005043,18.8563401 21.5153458,19.0551513 21.7017651,19.1628242 C21.8880764,19.2704611 22.1177233,19.2704611 22.3040346,19.1628242 C22.4903458,19.0551513 22.6051873,18.8563401 22.6051873,18.6411744 C22.6051873,18.4260447 22.4903458,18.2271974 22.3040346,18.1195605 C22.1177233,18.0120317 21.8880764,18.0120317 21.7017651,18.1195605 C21.5153458,18.2271974 21.4005043,18.4260447 21.4005043,18.6411744 Z" id="Fill-4" fill="#FFFFFF"></path>
                    <path d="M8.86743516,24.2233429 C8.86743516,24.7231628 9.27255043,25.1282781 9.77237032,25.1282781 C10.2720461,25.1282781 10.6771614,24.7231628 10.6771614,24.2233429 C10.6771614,23.7235231 10.2720461,23.3184078 9.77237032,23.3184078 C9.27255043,23.3184078 8.86743516,23.7235231 8.86743516,24.2233429 Z" id="Fill-5" fill="#FFFFFF"></path>
                    <path d="M9.77237032,22.1139049 C8.60810519,22.1139049 7.66278818,23.0590778 7.66278818,24.2233429 C7.66278818,25.3876081 8.60810519,26.332817 9.77237032,26.332817 C10.9366715,26.332817 11.8818444,25.3876081 11.8818444,24.2233429 C11.8818444,23.0620317 10.9337176,22.1139049 9.77237032,22.1139049 Z M9.77237032,25.1282781 C9.27381124,25.1282781 8.86743516,24.721902 8.86743516,24.2233429 C8.86743516,23.7247839 9.27381124,23.3184078 9.77237032,23.3184078 C10.2709294,23.3184078 10.6771614,23.7247839 10.6771614,24.2233429 C10.6743516,24.721902 10.2709294,25.1282781 9.77237032,25.1282781 Z" id="Fill-6" fill="#5C75F0"></path>
                    <path d="M19.8932997,24.2233429 C19.8932997,24.5465778 20.0658141,24.845317 20.3458573,25.0069885 C20.6257205,25.1686599 20.9707493,25.1686599 21.2507925,25.0069885 C21.5306556,24.845317 21.70317,24.5465778 21.70317,24.2233429 C21.70317,23.9 21.5306556,23.6014049 21.2507925,23.4396974 C20.9707493,23.2780259 20.6257205,23.2780259 20.3458573,23.4396974 C20.0658141,23.6014049 19.8932997,23.9 19.8932997,24.2233429 Z" id="Fill-7" fill="#FFFFFF"></path>
                    <path d="M20.7982349,22.1139049 C19.6339697,22.1139049 18.6887968,23.0590778 18.6887968,24.2233429 C18.6887968,25.3876081 19.6339697,26.332817 20.7982349,26.332817 C21.962536,26.332817 22.907853,25.3876081 22.907853,24.2233429 C22.907853,23.0620317 21.9597262,22.1139049 20.7982349,22.1139049 Z M20.7982349,25.1282781 C20.2997118,25.1282781 19.8932997,24.721902 19.8932997,24.2233429 C19.8932997,23.7247839 20.2997118,23.3184078 20.7982349,23.3184078 C21.2967939,23.3184078 21.70317,23.7247839 21.70317,24.2233429 C21.7002161,24.721902 21.2967939,25.1282781 20.7982349,25.1282781 Z" id="Fill-8" fill="#6B70F4"></path>
                </g>
            </g>
        </g>
    </g>
</svg>