<?xml version="1.0" encoding="UTF-8"?>
<svg width="1280px" height="300px" viewBox="0 0 1280 300" version="1.1" xmlns="http://www.w3.org/2000/svg" xmlns:xlink="http://www.w3.org/1999/xlink">
    <!-- Generator: Sketch 52 (66869) - http://www.bohemiancoding.com/sketch -->
    <title>logo+底</title>
    <desc>Created with Sketch.</desc>
    <defs>
        <rect id="path-1" x="0" y="0" width="1280" height="300"></rect>
        <linearGradient x1="12.5385648%" y1="11.4282648%" x2="101.999998%" y2="100.999999%" id="linearGradient-3">
            <stop stop-color="#8371F8" offset="0%"></stop>
            <stop stop-color="#7059F9" offset="100%"></stop>
        </linearGradient>
        <linearGradient x1="85.8099295%" y1="10.3763247%" x2="9.35804591%" y2="77.655493%" id="linearGradient-4">
            <stop stop-color="#3828D3" offset="0%"></stop>
            <stop stop-color="#A1E2E2" stop-opacity="0.113139719" offset="100%"></stop>
        </linearGradient>
        <linearGradient x1="12.4834144%" y1="100.944849%" x2="102.055149%" y2="11.4834153%" id="linearGradient-5">
            <stop stop-color="#696EF6" offset="0%"></stop>
            <stop stop-color="#5F56F7" offset="100%"></stop>
        </linearGradient>
        <linearGradient x1="12.5385648%" y1="11.4282648%" x2="101.999998%" y2="100.999999%" id="linearGradient-6">
            <stop stop-color="#3023AE" offset="0%"></stop>
            <stop stop-color="#A1E2E2" offset="100%"></stop>
        </linearGradient>
    </defs>
    <g id="logo+底" stroke="none" stroke-width="1" fill="none" fill-rule="evenodd">
        <g id="分组-10">
            <g id="Group">
                <mask id="mask-2" fill="white">
                    <use xlink:href="#path-1"></use>
                </mask>
                <use id="Mask" fill="#221F8E" xlink:href="#path-1"></use>
                <g id="Group-child" mask="url(#mask-2)">
                    <g transform="translate(141.829009, -462.748740)">
                        <path d="M834.584661,513.586905 L1134.92223,513.586905 C1173.02988,513.586905 1203.92223,544.479257 1203.92223,582.586905 L1203.92223,1015.32556 C1203.92223,1053.43321 1173.02988,1084.32556 1134.92223,1084.32556 L834.584661,1084.32556 C796.477013,1084.32556 765.584661,1053.43321 765.584661,1015.32556 L765.584661,582.586905 C765.584661,544.479257 796.477013,513.586905 834.584661,513.586905 Z" id="Rectangle-2-Copy-4" fill="url(#linearGradient-3)" opacity="0.488374256" transform="translate(984.753445, 798.956231) rotate(-315.000000) translate(-984.753445, -798.956231) "></path>
                        <path d="M206.593535,516.1578 L506.931105,516.1578 C545.038752,516.1578 575.931105,547.050152 575.931105,585.1578 L575.931105,1017.89645 C575.931105,1056.0041 545.038752,1086.89645 506.931105,1086.89645 L206.593535,1086.89645 C168.485887,1086.89645 137.593535,1056.0041 137.593535,1017.89645 L137.593535,585.1578 C137.593535,547.050152 168.485887,516.1578 206.593535,516.1578 Z" id="Rectangle-2-Copy-5" fill="url(#linearGradient-4)" opacity="0.332333519" transform="translate(356.762320, 801.527126) rotate(-315.000000) translate(-356.762320, -801.527126) "></path>
                        <path d="M521.528152,97.3573003 L821.865722,97.3573003 C859.97337,97.3573003 890.865722,128.249653 890.865722,166.3573 L890.865722,599.095954 C890.865722,637.203601 859.97337,668.095954 821.865722,668.095954 L521.528152,668.095954 C483.420505,668.095954 452.528152,637.203601 452.528152,599.095954 L452.528152,166.3573 C452.528152,128.249653 483.420505,97.3573003 521.528152,97.3573003 Z" id="Rectangle-2-Copy-6" fill="url(#linearGradient-5)" opacity="0.156901042" transform="translate(671.696937, 382.726627) rotate(-225.000000) translate(-671.696937, -382.726627) "></path>
                        <path d="M1012.98242,60.6152769 L1302.30983,60.6152769 C1323.84893,60.6152769 1341.30983,78.0761716 1341.30983,99.6152769 L1341.30983,499.894947 C1341.30983,521.434052 1323.84893,538.894947 1302.30983,538.894947 L1012.98242,538.894947 C991.443316,538.894947 973.982421,521.434052 973.982421,499.894947 L973.982421,99.6152769 C973.982421,78.0761716 991.443316,60.6152769 1012.98242,60.6152769 Z" id="Rectangle-2-Copy-7" fill="url(#linearGradient-6)" opacity="0.400000006" transform="translate(1157.646123, 299.755112) rotate(-225.000000) translate(-1157.646123, -299.755112) "></path>
                    </g>
                </g>
            </g>
            <g id="分组" transform="translate(167.000000, 106.000000)">
                <g transform="translate(0.000000, 0.244938)">
                    <path d="M30.7960165,12.5036049 C30.7611193,12.5062387 30.7268807,12.5108477 30.6919835,12.5134815 C30.7604609,12.518749 30.7973333,12.5226996 30.7973333,12.5226996 L30.7960165,12.5036049 Z" id="Fill-19" fill="#FFFFFF"></path>
                    <path d="M35.6060247,21.7892016 C39.9991111,23.9192428 41.8335144,29.2091193 39.7028148,33.6015473 C37.5721152,37.9952922 32.2835556,39.829037 27.8898107,37.6983374 C23.4967243,35.5682963 21.662321,30.2797366 23.7930206,25.8859918 C25.9237202,21.4929053 31.2129383,19.6585021 35.6060247,21.7892016 M15.019358,25.8300247 C13.8335144,30.8808889 15.0246255,36.1437695 18.090963,40.1674733 C19.6389465,42.8986667 24.6753251,50.3804774 35.7765597,55.6789136 L55.5276708,55.6789136 L55.5276708,47.4668971 C48.5093992,47.73093 40.928823,47.581465 36.9334321,46.1190782 C41.2738436,44.7436049 45.0638025,41.661465 47.2070123,37.2413827 C47.4512922,36.737679 47.6666008,36.2273909 47.8582058,35.7124938 C50.2068477,31.4188313 55.4703868,18.8466502 49.4601811,0.401218107 L35.1819918,0.401218107 C38.8626502,6.2665679 42.4478354,12.7831111 43.2142551,16.9496955 C42.048823,15.9054156 40.7233909,15.0013827 39.2452016,14.2850041 C34.8363128,12.1457449 29.9638848,12.0673909 25.7117037,13.6627819 C27.26693,13.0484609 28.9386996,12.650107 30.6921152,12.5131523 C29.3344198,12.4058272 14.8514568,11.6288724 0.249975309,25.8859918 L0.249975309,49.940642 C3.71005761,42.5826173 10.1041317,29.9571029 15.019358,25.8300247" id="Fill-20" fill="#FFFFFF"></path>
                    <polygon id="Stroke-21" stroke="#FFFFFF" stroke-width="3" points="0.250041152 55.6788477 55.5277366 55.6788477 55.5277366 0.401152263 0.250041152 0.401152263"></polygon>
                </g>
            </g>
            <g id="分组" transform="translate(155.000000, 174.000000)">
                <path d="M3.17533003,15.8076733 L2.12334983,15.8076733 C2.05940594,15.8076733 2.00742574,15.8592409 2.00742574,15.9235974 L2.00742574,17.1018152 C2.00742574,17.1661716 2.05940594,17.2177393 2.12334983,17.2177393 L3.17533003,17.2177393 C3.23968647,17.2177393 3.29166667,17.1661716 3.29166667,17.1018152 L3.29166667,15.9235974 C3.29166667,15.8592409 3.23968647,15.8076733 3.17533003,15.8076733" id="Fill-1" fill="#595757"></path>
                <path d="M16.4537954,1.43378713 L1.68688119,1.43378713 C1.62293729,1.43378713 1.5709571,1.48576733 1.5709571,1.54971122 L1.5709571,2.72834158 C1.5709571,2.79228548 1.62293729,2.84426568 1.68688119,2.84426568 L16.4537954,2.84426568 C16.5177393,2.84426568 16.5697195,2.79228548 16.5697195,2.72834158 L16.5697195,1.54971122 C16.5697195,1.48576733 16.5177393,1.43378713 16.4537954,1.43378713" id="Fill-3" fill="#FFFFFF"></path>
                <path d="M17.1860149,17.9926568 C15.7247937,15.0714521 14.4801568,12.8474422 13.4867574,11.3816832 C13.4653053,11.349505 13.4290017,11.3305281 13.3906353,11.3305281 L11.6625,11.3305281 C11.6204208,11.3305281 11.5820545,11.3528053 11.5614274,11.3895215 C11.5403878,11.4262376 11.5412129,11.4707921 11.5630776,11.5066832 C12.5585396,13.1560231 13.3683581,14.6052805 13.9958333,15.8519802 L4.05070132,15.8519802 C4.00119637,15.8519802 3.96076733,15.9039604 3.96076733,15.9679043 L3.96076733,16.0809406 L3.96076733,17.1019802 L3.96076733,17.1465347 C3.96076733,17.2104785 4.00119637,17.2624587 4.05070132,17.2624587 L14.6658003,17.2624587 C14.7941007,17.5520627 14.9104373,17.8284653 15.0106848,18.0867162 C15.027599,18.1308581 15.0709158,18.1605611 15.1187706,18.1605611 L17.0820545,18.1605611 C17.1224835,18.1605611 17.1600248,18.1395215 17.1810644,18.1056931 C17.202104,18.0714521 17.2037541,18.0285479 17.1860149,17.9926568" id="Fill-5" fill="#FFFFFF"></path>
                <path d="M17.6319719,7.24624587 L0.11629538,7.24624587 C0.0519389439,7.24624587 -4.12541254e-05,7.29781353 -4.12541254e-05,7.36216997 L-4.12541254e-05,8.54038779 C-4.12541254e-05,8.60433168 0.0519389439,8.65631188 0.11629538,8.65631188 L5.87289604,8.65631188 L1.4314769,15.5482261 C1.14311056,16.0090347 1.06431518,16.3543317 1.18766502,16.5981436 C1.36423267,17.0094472 1.74377063,17.2177805 2.31555281,17.2177805 L3.02429868,17.2177805 C3.08824257,17.2177805 3.14022277,17.1662129 3.14022277,17.1018564 L3.14022277,16.1142327 L8.18931518,8.65631188 L17.6319719,8.65631188 C17.6963284,8.65631188 17.747896,8.60433168 17.747896,8.54038779 L17.747896,7.36216997 C17.747896,7.29781353 17.6963284,7.24624587 17.6319719,7.24624587" id="Fill-7" fill="#FFFFFF"></path>
                <path d="M27.2247937,8.69760726 C27.2247937,7.5259901 26.6575495,6.93193069 25.5379125,6.93193069 L23.9764439,6.93193069 C24.4108498,5.73514851 24.757797,4.3349835 25.0086221,2.76526403 L28.0515264,2.76526403 C28.1154703,2.76526403 28.1674505,2.71369637 28.1674505,2.64933993 L28.1674505,1.54991749 C28.1674505,1.4859736 28.1154703,1.4339934 28.0515264,1.4339934 L20.5894802,1.4339934 C20.5255363,1.4339934 20.4735561,1.4859736 20.4735561,1.54991749 L20.4735561,2.64933993 C20.4735561,2.71369637 20.5255363,2.76526403 20.5894802,2.76526403 L23.2800743,2.76526403 C22.7511964,5.86881188 21.6043317,8.580033 19.8691832,10.8259076 C19.8502063,10.8506601 19.8419554,10.8820132 19.8460809,10.9133663 C19.8506188,10.9438944 19.8671205,10.9719472 19.8922855,10.9905116 L21.0709158,11.8543729 C21.0964934,11.8733498 21.1290842,11.880363 21.1596122,11.875 C21.1909653,11.869637 21.2186056,11.8514851 21.2359323,11.8250825 C21.5692657,11.32467 21.8931106,10.8473597 22.2012789,10.4022277 L22.2025165,16.0181518 C22.3143152,16.8568482 22.7969884,17.339934 23.637335,17.4525578 C23.642698,17.4533828 23.6476485,17.4537954 23.6530116,17.4537954 C23.6806518,17.4537954 23.7078795,17.4438944 23.7293317,17.4249175 C23.7544967,17.4030528 23.7689356,17.3712871 23.7689356,17.3374587 L23.7681106,8.86881188 C23.8134901,8.50041254 23.9813944,8.30816832 24.2813119,8.2640264 L25.0667904,8.2640264 C25.4207508,8.2640264 25.5791667,8.4459571 25.5791667,8.85478548 L25.5791667,15.6881188 C25.5791667,16.0969472 25.4207508,16.2788779 25.0667904,16.2788779 L24.7058168,16.2788779 C24.6414604,16.2788779 24.5894802,16.3308581 24.5894802,16.3952145 L24.5894802,17.3374587 C24.5894802,17.4018152 24.6414604,17.4537954 24.7058168,17.4537954 L25.5507013,17.4529703 C26.5482261,17.3411716 27.1113449,16.8584983 27.2247937,16.0024752 L27.2247937,8.69760726 Z" id="Fill-9" fill="#FFFFFF"></path>
                <path d="M38.1839109,2.53325083 L34.739604,2.53325083 C34.7247525,2.4990099 34.7020627,2.46518152 34.6731848,2.43176568 C34.3608911,1.49859736 34.094802,0.863283828 33.8819307,0.543151815 C33.8608911,0.510561056 33.8241749,0.491171617 33.785396,0.491171617 L32.2928218,0.491171617 C32.2536304,0.491171617 32.2173267,0.510973597 32.1958746,0.543976898 C32.1744224,0.576567657 32.1711221,0.617821782 32.1863861,0.653712871 C32.5155941,1.40742574 32.740429,2.0390264 32.8555281,2.53325083 L30.244967,2.53325083 C29.1364686,2.58935644 28.5180693,3.15247525 28.4066832,4.22054455 L28.4066832,10.6636139 C28.4578383,13.4618812 28.0122937,15.8756601 27.0824257,17.8381188 C27.0683993,17.8678218 27.0679868,17.9033003 27.0811881,17.9342409 C27.0943894,17.964769 27.1207921,17.9882838 27.1525578,17.9981848 L28.645132,18.4693069 C28.6566832,18.4730198 28.6686469,18.47467 28.6797855,18.47467 C28.7255776,18.47467 28.7684818,18.4478548 28.7870462,18.4037129 C29.7305281,16.1495875 30.1826733,13.5439769 30.1311056,10.6615512 L30.1306931,4.7019802 C30.1773102,4.18506601 30.4256601,3.91113861 30.8790429,3.86534653 L38.1839109,3.86534653 C38.2482673,3.86534653 38.299835,3.81336634 38.299835,3.7490099 L38.299835,2.64917492 C38.299835,2.58523102 38.2482673,2.53325083 38.1839109,2.53325083" id="Fill-11" fill="#FFFFFF"></path>
                <path d="M48.4837459,6.49830858 L48.4837459,5.32009076 C48.4837459,5.25614686 48.4317657,5.20416667 48.3678218,5.20416667 L45.3418317,5.20416667 L45.3418317,2.3605198 C46.2510726,2.25573432 47.1714521,2.10061881 48.0786304,1.89888614 C48.140099,1.88485974 48.179703,1.82462871 48.1673267,1.76274752 L47.9317657,0.584529703 C47.9193894,0.523061056 47.8616337,0.482632013 47.7993399,0.492533003 C45.5010726,0.858457096 43.0724422,1.14888614 40.5819307,1.35556931 C40.5489274,1.3584571 40.5188119,1.37495875 40.4990099,1.40136139 C40.4787954,1.42776403 40.4713696,1.46159241 40.4779703,1.49377063 L40.7135314,2.67198845 C40.7242574,2.72644389 40.7716997,2.76522277 40.8269802,2.76522277 C41.7787129,2.76522277 42.7432343,2.69261551 43.6957921,2.54905116 L43.6957921,5.20416667 L40.3558581,5.20416667 C40.2919142,5.20416667 40.239934,5.25614686 40.239934,5.32009076 L40.239934,6.49830858 C40.239934,6.56225248 40.2919142,6.61423267 40.3558581,6.61423267 L43.6957921,6.61423267 L43.6957921,18.1233086 C43.6957921,18.1872525 43.7477723,18.2392327 43.8117162,18.2392327 L45.2259076,18.2392327 C45.2898515,18.2392327 45.3418317,18.1872525 45.3418317,18.1233086 L45.3418317,6.61423267 L48.3678218,6.61423267 C48.4317657,6.61423267 48.4837459,6.56225248 48.4837459,6.49830858" id="Fill-13" fill="#FFFFFF"></path>
                <path d="M42.2408416,7.71740924 L41.1410066,7.71740924 C41.0770627,7.71740924 41.0250825,7.76938944 41.0250825,7.83333333 C41.0250825,10.535066 40.8142739,13.4104785 40.3980198,16.3791254 C40.3934818,16.4108911 40.4025578,16.4430693 40.4227723,16.4678218 C40.4429868,16.4929868 40.4726898,16.5086634 40.504868,16.5107261 L41.6042904,16.5895215 C41.6071782,16.5895215 41.610066,16.5895215 41.6129538,16.5895215 C41.6690594,16.5895215 41.7177393,16.5490924 41.7272277,16.4925743 C42.145132,13.9818482 42.3571782,11.0688944 42.3571782,7.83333333 C42.3571782,7.76938944 42.305198,7.71740924 42.2408416,7.71740924" id="Fill-15" fill="#FFFFFF"></path>
                <path d="M51.4813119,11.4139439 C51.4994637,11.4568482 51.5415429,11.4840759 51.5881601,11.4840759 L53.3158828,11.4840759 C53.3567244,11.4840759 53.3946782,11.4630363 53.4153053,11.4279703 C53.4363449,11.3933168 53.4375825,11.35 53.4186056,11.3136964 C52.4784241,9.53935644 51.5506188,8.02821782 50.6603548,6.82194719 C50.6384901,6.79224422 50.6042492,6.77491749 50.5671205,6.77491749 L49.0745462,6.77491749 C49.0320545,6.77491749 48.9932756,6.7980198 48.9726485,6.83514851 C48.952434,6.87227723 48.9540842,6.91765677 48.9767739,6.95354785 C50.1731436,8.82689769 51.0159653,10.3273102 51.4813119,11.4139439" id="Fill-17" fill="#FFFFFF"></path>
                <path d="M51.1330446,1.56109736 C51.1111799,1.53056931 51.0757013,1.51200495 51.0381601,1.51200495 L49.5455858,1.51200495 C49.5055693,1.51200495 49.4684406,1.53304455 49.447401,1.56687294 C49.4259488,1.60070132 49.4238861,1.64319307 49.4416254,1.6794967 C49.4956683,1.79005776 49.6025165,1.95012376 49.7592822,2.15680693 C50.8512789,4.08213696 51.5897277,5.45383663 51.9540017,6.23312706 C51.9733911,6.27396865 52.0142327,6.29995875 52.0591997,6.29995875 L53.7877475,6.29995875 C53.8281766,6.29995875 53.8661304,6.27891914 53.88717,6.24385314 C53.907797,6.20919967 53.9090347,6.16588284 53.8900578,6.12957921 C52.9486386,4.35276403 52.0212459,2.81604785 51.1330446,1.56109736" id="Fill-19" fill="#FFFFFF"></path>
                <path d="M58.1816832,12.1431518 C58.1573432,12.1229373 58.125165,12.1126238 58.0933993,12.1171617 L56.2596535,12.3370462 L56.2596535,0.607260726 C56.2596535,0.54290429 56.2076733,0.490924092 56.1437294,0.490924092 L54.6515677,0.490924092 C54.5872112,0.490924092 54.5356436,0.54290429 54.5356436,0.607260726 L54.5356436,12.4632838 C54.5356436,12.4690594 54.5360561,12.474835 54.5368812,12.4806106 L54.5368812,14.9438944 C54.5360561,14.94967 54.5356436,14.9554455 54.5356436,14.9616337 L54.5356436,18.1233498 C54.5356436,18.1872937 54.5872112,18.2392739 54.6515677,18.2392739 L56.1437294,18.2392739 C56.2076733,18.2392739 56.2596535,18.1872937 56.2596535,18.1233498 L56.2596535,13.9063531 L58.1994224,13.6827558 C58.2604785,13.67533 58.3054455,13.6216997 58.3021452,13.5606436 L58.2233498,12.2252475 C58.2212871,12.1934818 58.2064356,12.1637789 58.1816832,12.1431518" id="Fill-21" fill="#FFFFFF"></path>
                <path d="M47.7392327,7.71740924 L46.6398102,7.71740924 C46.5754538,7.71740924 46.5238861,7.76938944 46.5238861,7.83333333 C46.5238861,10.7124587 46.7351073,13.625 47.1530116,16.4905116 C47.1616749,16.5478548 47.2107673,16.5895215 47.2681106,16.5895215 C47.2705858,16.5895215 47.2730611,16.5895215 47.2755363,16.5895215 L48.4541667,16.5107261 C48.4867574,16.5086634 48.5172855,16.4925743 48.5379125,16.4665842 C48.5577145,16.4410066 48.5659653,16.4075908 48.5606023,16.375 C48.1439356,13.9843234 47.9067244,11.1101485 47.8551568,7.83168317 C47.8543317,7.76815182 47.802764,7.71740924 47.7392327,7.71740924" id="Fill-23" fill="#FFFFFF"></path>
                <path d="M53.5867162,12.6342409 L48.6683993,13.2167492 C48.6362211,13.220462 48.6073432,13.2373762 48.5883663,13.2633663 C48.5689769,13.2889439 48.5619637,13.3219472 48.5677393,13.3533003 L48.8033003,14.609901 C48.8140264,14.6655941 48.8622937,14.7047855 48.9175743,14.7047855 C48.9216997,14.7047855 48.9258251,14.7043729 48.9299505,14.7039604 L53.6127063,14.1907591 C53.6716997,14.184571 53.7162541,14.1346535 53.7162541,14.0756601 L53.7162541,12.7493399 C53.7162541,12.7163366 53.7022277,12.684571 53.6774752,12.6627063 C53.6527228,12.6408416 53.6197195,12.6305281 53.5867162,12.6342409" id="Fill-25" fill="#FFFFFF"></path>
                <path d="M70.8485974,8.73506601 C70.9129538,8.73506601 70.9645215,8.68308581 70.9645215,8.61914191 L70.9645215,7.51930693 C70.9645215,7.4549505 70.9129538,7.4029703 70.8485974,7.4029703 L67.5808581,7.4029703 C67.5165017,7.4029703 67.464934,7.4549505 67.464934,7.51930693 L67.464934,8.61914191 C67.464934,8.68308581 67.5165017,8.73506601 67.5808581,8.73506601 L70.8485974,8.73506601 Z" id="Fill-27" fill="#FFFFFF"></path>
                <path d="M66.7604373,10.1755363 L66.6032591,8.91893564 C66.5983086,8.88139439 66.5760314,8.84880363 66.5430281,8.83106436 C66.5096122,8.81291254 66.4695957,8.8125 66.4361799,8.82941419 C66.3693482,8.86283003 66.2245462,8.91563531 65.8932756,8.98329208 C65.3532591,9.20936469 64.9085396,9.39500825 64.562005,9.54269802 L64.562005,5.357467 L66.6453383,5.357467 C66.7092822,5.357467 66.7612624,5.3054868 66.7612624,5.2415429 L66.7612624,4.06332508 C66.7612624,3.99938119 66.7092822,3.94740099 66.6453383,3.94740099 L64.562005,3.94740099 L64.562005,0.607466997 C64.562005,0.543110561 64.5100248,0.491130363 64.4460809,0.491130363 L62.8751238,0.491130363 C62.8107673,0.491130363 62.7587871,0.543110561 62.7587871,0.607466997 L62.7587871,3.94740099 L60.3615099,3.94740099 C60.2971535,3.94740099 60.2455858,3.99938119 60.2455858,4.06332508 L60.2455858,5.2415429 C60.2455858,5.3054868 60.2971535,5.357467 60.3615099,5.357467 L62.7587871,5.357467 L62.7587871,10.1895627 C62.4881601,10.2947607 62.0661304,10.442863 61.5001238,10.6309818 C60.9093647,10.8455033 60.4737211,10.9993812 60.1680281,11.1008663 C60.1106848,11.1198432 60.0776815,11.1788366 60.0912954,11.2374175 L60.4060644,12.5728135 C60.4139026,12.607467 60.4374175,12.6363449 60.4695957,12.6516089 C60.5017739,12.6664604 60.5389026,12.6660479 60.5706683,12.6503713 C60.7695132,12.5505363 61.0789191,12.4478135 61.5058993,12.3393152 C62.0294142,12.1214934 62.4497937,11.9556518 62.7587871,11.8455033 L62.7587871,16.0026815 C62.7587871,16.2898102 62.6733911,16.6718234 61.932467,16.6718234 L60.5186881,16.6718234 C60.4811469,16.6718234 60.4464934,16.6899752 60.4246287,16.7200908 C60.402764,16.7502063 60.3969884,16.7893977 60.4085396,16.8244637 L60.8012789,18.0030941 C60.8169554,18.0501238 60.8615099,18.082302 60.9114274,18.082302 L62.6445132,18.0818894 C63.8610974,18.0261964 64.5063119,17.407797 64.562005,16.23783 L64.562005,11.1375825 C65.3136551,10.8842822 66.0306518,10.6012789 66.6936056,10.2951733 C66.7398102,10.2741337 66.7666254,10.2258663 66.7604373,10.1755363" id="Fill-29" fill="#FFFFFF"></path>
                <path d="M78.7740924,16.60033 C77.1074257,15.9938944 75.5459571,15.2075908 74.1309406,14.2608086 C75.6552805,12.8668317 76.9205446,11.2525578 77.8871287,9.47079208 C78.2802805,8.90849835 78.334736,8.44232673 78.0484323,8.08630363 C77.8157591,7.57764026 77.3817657,7.34620462 76.7707921,7.40313531 L73.7452145,7.40313531 L73.7452145,4.80783828 L78.4989274,4.80783828 C78.5628713,4.80783828 78.6148515,4.75585809 78.6148515,4.69150165 L78.6148515,3.51369637 C78.6148515,3.44933993 78.5628713,3.39735974 78.4989274,3.39735974 L73.7452145,3.39735974 L73.7452145,0.528547855 C73.7452145,0.46460396 73.6932343,0.412623762 73.6288779,0.412623762 L71.9007426,0.412623762 C71.8367987,0.412623762 71.7848185,0.46460396 71.7848185,0.528547855 L71.7848185,3.39735974 L67.3450495,3.39735974 C67.2811056,3.39735974 67.2291254,3.44933993 67.2291254,3.51369637 L67.2291254,4.69150165 C67.2291254,4.75585809 67.2811056,4.80783828 67.3450495,4.80783828 L71.7848185,4.80783828 L71.7848185,6.89117162 C71.7848185,6.89529703 71.7848185,6.89942244 71.7856436,6.90354785 L71.7856436,8.61889439 C71.7856436,8.68325083 71.8372112,8.73523102 71.9015677,8.73523102 L75.6709571,8.73523102 C75.9386964,8.73523102 76.1049505,8.78061056 76.1049505,8.85486799 C76.1049505,8.86683168 76.1070132,8.87920792 76.1107261,8.89117162 C76.1511551,9.01369637 76.129703,9.1349835 76.0447195,9.26369637 C75.080198,10.7855611 73.9514851,12.1019802 72.6886964,13.1778878 C71.6775578,12.2558581 70.6783828,11.0966172 69.7179868,9.73069307 C69.6961221,9.69933993 69.6606436,9.68118812 69.6226898,9.68118812 L67.9733498,9.68118812 C67.9320957,9.68118812 67.8937294,9.70305281 67.8731023,9.73894389 C67.8520627,9.77524752 67.8520627,9.81938944 67.8731023,9.85486799 C68.9869637,11.7818482 70.1193894,13.2636964 71.2394389,14.2620462 C69.8120462,15.2129538 68.0929868,16.0520627 66.1276403,16.7570957 C66.0950495,16.7690594 66.0694719,16.7942244 66.0579208,16.8268152 C66.0459571,16.8594059 66.0492574,16.895297 66.0669967,16.9254125 L66.8524752,18.260396 C66.8735149,18.2966997 66.9122937,18.3177393 66.9523102,18.3177393 C66.9671617,18.3177393 66.9824257,18.3148515 66.9972772,18.3086634 C69.2117987,17.3812706 71.0975248,16.4155116 72.6033003,15.4369637 C73.859901,16.3660066 75.6433168,17.305363 77.904868,18.2306931 C77.9589109,18.2529703 78.0216172,18.2311056 78.050495,18.179538 L78.8359736,16.7657591 C78.8520627,16.7360561 78.8549505,16.7005776 78.8429868,16.6688119 C78.8310231,16.6366337 78.8058581,16.6118812 78.7740924,16.60033" id="Fill-31" fill="#FFFFFF"></path>
            </g>
        </g>
    </g>
</svg>