<?xml version="1.0" encoding="UTF-8"?>
<svg width="40px" height="40px" viewBox="0 0 40 40" version="1.1" xmlns="http://www.w3.org/2000/svg" xmlns:xlink="http://www.w3.org/1999/xlink">
    <!-- Generator: Sketch 52 (66869) - http://www.bohemiancoding.com/sketch -->
    <title>收币地址</title>
    <desc>Created with Sketch.</desc>
    <defs>
        <polygon id="path-1" points="0.00146341463 0.0195121951 19.9804634 0.0195121951 19.9804634 19.9999756 0.00146341463 19.9999756"></polygon>
    </defs>
    <g id="收币地址" stroke="none" stroke-width="1" fill="none" fill-rule="evenodd">
        <g id="分组-5">
            <rect id="矩形" x="0" y="0" width="40" height="40"></rect>
            <g id="BTC-2" transform="translate(10.000000, 10.000000)">
                <g id="分组">
                    <mask id="mask-2" fill="white">
                        <use xlink:href="#path-1"></use>
                    </mask>
                    <g id="Clip-2"></g>
                    <path d="M9.99097492,18.5781505 C14.7232976,18.5781505 18.5593701,14.7420781 18.5593701,10.0097554 C18.5593701,5.27740972 14.7232976,1.44133726 9.99097492,1.44133726 C5.25862923,1.44133726 1.42255677,5.27740972 1.42255677,10.0097554 C1.42255677,14.7420781 5.25862923,18.5781505 9.99097492,18.5781505 Z M9.99029268,19.9999756 C4.47295122,19.9999756 0,15.527122 0,10.0098049 C0,4.49246341 4.47295122,0.0195121951 9.99029268,0.0195121951 C15.5076098,0.0195121951 19.9804634,4.49246341 19.9804634,10.0098049 C19.9804634,15.527122 15.5076098,19.9999756 9.99029268,19.9999756 Z" id="Fill-1" fill="#736EF7" mask="url(#mask-2)"></path>
                </g>
                <path d="M5.90329268,5.87746341 L7.9695122,5.87746341 L7.9695122,4.10639024 L9.15014634,4.10639024 L9.15014634,5.87746341 L10.0356341,5.87746341 L10.0356341,4.10639024 L11.2162683,4.10639024 L11.2162683,5.87746341 C14.463122,5.87746341 14.463122,9.41939024 12.6921707,9.56704878 C15.053439,9.41939024 15.6437805,14.142122 11.2162683,14.142122 L11.2162683,15.9130976 L10.0356341,15.9130976 L10.0356341,14.142122 L9.15014634,14.142122 L9.15014634,15.9130976 L7.9695122,15.9130976 L7.9695122,14.142122 L5.90329268,14.142122 L6.19846341,12.9613902 L6.78887805,12.9613902 C6.94541463,12.9613902 7.09556098,12.8991707 7.20626829,12.7884634 C7.31697561,12.6777561 7.37919512,12.5276098 7.37919512,12.3710732 L7.37919512,7.64841463 C7.37919512,7.49187805 7.31697561,7.34173171 7.20626829,7.23102439 C7.09556098,7.12031707 6.94541463,7.05809756 6.78887805,7.05809756 L5.90329268,7.05809756 L5.90329268,5.87746341 Z M9.15014634,7.05809756 L9.15014634,9.41939024 C9.15014634,9.41939024 11.8066829,9.56704878 11.8066829,8.23873171 C11.8066829,6.9105122 9.15014634,7.05809756 9.15014634,7.05809756 Z M9.15014634,10.3049512 L9.15014634,12.9613902 C9.15014634,12.9613902 12.397,12.9613902 12.397,11.6331707 C12.397,10.3049512 9.15014634,10.3049512 9.15014634,10.3049512 Z" id="Fill-3" fill="#487AF1"></path>
            </g>
        </g>
    </g>
</svg>