<?xml version="1.0" encoding="UTF-8"?>
<svg width="40px" height="40px" viewBox="0 0 40 40" version="1.1" xmlns="http://www.w3.org/2000/svg" xmlns:xlink="http://www.w3.org/1999/xlink">
    <!-- Generator: Sketch 52 (66869) - http://www.bohemiancoding.com/sketch -->
    <title>银行名称icon</title>
    <desc>Created with Sketch.</desc>
    <defs>
        <polygon id="path-1" points="0.00146341463 0.00982926829 19.9804634 0.00982926829 19.9804634 10.7560976 0.00146341463 10.7560976"></polygon>
    </defs>
    <g id="银行名称icon" stroke="none" stroke-width="1" fill="none" fill-rule="evenodd">
        <g id="分组-7">
            <rect id="矩形-copy" x="0" y="0" width="40" height="40"></rect>
            <g id="yinhang" transform="translate(10.000000, 11.170732)">
                <path d="M9.99029268,9.75609756e-05 C9.90919512,9.75609756e-05 9.82821951,0.0270731707 9.7472439,0.0541219512 L9.72026829,0.0541219512 C9.69321951,0.0541219512 9.69321951,0.0541219512 9.6662439,0.081097561 L2.26809756,3.15921951 C1.83602439,3.32117073 1.53907317,3.75314634 1.53907317,4.2392439 C1.53907317,4.88719512 2.05202439,5.40026829 2.70007317,5.40026829 L17.2803902,5.40026829 C17.928439,5.40026829 18.4414146,4.88719512 18.4414146,4.2392439 C18.4414146,3.78021951 18.144439,3.34814634 17.7124634,3.15921951 L10.2872439,0.0541219512 L10.2602927,0.0541219512 C10.1522439,0.0270731707 10.0712683,9.75609756e-05 9.99029268,9.75609756e-05 Z" id="Fill-1" fill="#736EF7"></path>
                <path d="M9.23419512,3.07814634 C9.23419512,3.49573171 9.57268293,3.8342439 9.99029268,3.8342439 C10.4077805,3.8342439 10.7462927,3.49573171 10.7462927,3.07814634 C10.7462927,2.66063415 10.4077805,2.32212195 9.99029268,2.32212195 C9.57268293,2.32212195 9.23419512,2.66063415 9.23419512,3.07814634 Z" id="Fill-2" fill="#FFFFFF"></path>
                <g id="分组" transform="translate(0.000000, 6.902439)">
                    <mask id="mask-2" fill="white">
                        <use xlink:href="#path-1"></use>
                    </mask>
                    <g id="Clip-4"></g>
                    <path d="M3.07802439,0.00982926829 L3.07802439,6.13902439 L2.32202439,6.13902439 C1.89004878,6.13902439 1.53907317,6.46295122 1.53907317,6.89502439 C1.53907317,7.327 1.86309756,7.67797561 2.29507317,7.67797561 L17.6854146,7.67797561 C18.1174634,7.67797561 18.4684634,7.35404878 18.4684634,6.92197561 C18.4684634,6.49 18.144439,6.13902439 17.7124634,6.13902439 L16.9293902,6.13902439 L16.9293902,0.00982926829 L15.3903415,0.00982926829 L15.3903415,6.13902439 L13.8513659,6.13902439 L13.8513659,0.00982926829 L12.3123171,0.00982926829 L12.3123171,6.13902439 L10.7732439,6.13902439 L10.7732439,0.00982926829 L9.23419512,0.00982926829 L9.23419512,6.13902439 L7.69521951,6.13902439 L7.69521951,0.00982926829 L6.15614634,0.00982926829 L6.15614634,6.13902439 L4.61709756,6.13902439 L4.61709756,0.00982926829 L3.07802439,0.00982926829 Z" id="Fill-3" fill="#487AF1" mask="url(#mask-2)"></path>
                    <path d="M0.78304878,9.21704878 C0.351,9.21704878 0,9.54107317 0,9.97304878 C0,10.405122 0.32402439,10.7560976 0.756,10.7560976 L19.1975122,10.7560976 C19.6294878,10.7560976 19.9804634,10.4320732 19.9804634,10.0000976 C19.9804634,9.56802439 19.656439,9.21704878 19.2244634,9.21704878 L0.78304878,9.21704878 Z" id="Fill-5" fill="#736EF7" mask="url(#mask-2)"></path>
                </g>
            </g>
        </g>
    </g>
</svg>