<?xml version="1.0" encoding="UTF-8"?>
<svg width="40px" height="40px" viewBox="0 0 40 40" version="1.1" xmlns="http://www.w3.org/2000/svg" xmlns:xlink="http://www.w3.org/1999/xlink">
    <!-- Generator: Sketch 52 (66869) - http://www.bohemiancoding.com/sketch -->
    <title>收款银行卡号</title>
    <desc>Created with Sketch.</desc>
    <defs>
        <polygon id="path-1" points="0.0018011257 0.000348889881 19.5052908 0.000348889881 19.5052908 17.8011257 0.0018011257 17.8011257"></polygon>
    </defs>
    <g id="收款银行卡号" stroke="none" stroke-width="1" fill="none" fill-rule="evenodd">
        <g id="分组-6">
            <rect id="矩形" x="0" y="0" width="40" height="40"></rect>
            <g id="分组-3" transform="translate(9.500000, 10.000000)">
                <circle id="椭圆形" cx="10" cy="9.8938906" r="9.75609756"></circle>
                <g id="yinhangqia" transform="translate(0.243902, 1.343340)">
                    <g id="分组">
                        <mask id="mask-2" fill="white">
                            <use xlink:href="#path-1"></use>
                        </mask>
                        <g id="Clip-2"></g>
                        <path d="M18.2986567,5.93176735 L17.8612833,5.93176735 L15.8412308,0.773673546 C15.6200826,0.171677298 14.9000826,-0.157718574 14.278364,0.0758574109 L0.787181989,5.31989493 C0.479939962,5.43045403 0.231714822,5.6664015 0.101553471,5.96376735 C-0.028727955,6.26359475 -0.0336510319,6.59040901 0.0867842402,6.88039024 L2.60073546,13.2966604 L2.60073546,16.5846754 C2.60073546,17.2556248 3.14131332,17.8011257 3.80487805,17.8011257 L18.3011182,17.8011257 C18.9647129,17.8011257 19.5052908,17.2556248 19.5052908,16.5846754 L19.5052908,7.14821764 C19.5028293,6.47735835 18.9622514,5.93176735 18.2986567,5.93176735 Z M17.1265141,5.93176735 L13.5485478,5.93176735 L16.6546792,4.72279174 L17.1265141,5.93176735 Z M2.1804728,10.3527205 L2.59827392,10.1905591 L2.59827392,11.4216585 L2.1804728,10.3527205 Z M2.60073546,7.14821764 L2.60073546,7.33010131 L1.20732458,7.87064916 L0.720810507,6.62478049 C0.66908818,6.50188368 0.671669794,6.36433771 0.728075047,6.23897936 C0.78472045,6.10869794 0.890356473,6.01044653 1.03036398,5.95884428 L14.5241576,0.712255159 C14.5838349,0.689741088 14.6470544,0.678123827 14.7108443,0.677763602 C14.9319925,0.677763602 15.1286454,0.810506567 15.204863,1.01454409 L15.6889156,2.24813508 L6.20085553,5.93176735 L3.80487805,5.93176735 C3.13894184,5.93176735 2.60073546,6.47735835 2.60073546,7.14821764 Z M18.2867165,16.2637239 C18.2867165,16.5335687 18.0648627,16.7599758 17.8018897,16.7599758 L4.31456373,16.7599758 C4.05159071,16.7599758 3.82976484,16.5335687 3.82976484,16.2637239 L3.82976484,7.48024613 C3.82976484,7.21040128 4.05159071,6.98396625 4.31456373,6.98396625 L17.8041803,6.98396625 C18.0671533,6.98396625 18.2890071,7.21040128 18.2890071,7.48024613 L18.2867165,16.2637239 Z" id="Fill-1" fill="#487AF1" mask="url(#mask-2)"></path>
                    </g>
                    <path d="M17.3059362,15.1077523 L5.1097636,15.1077523 C4.92049531,15.1077523 4.76818011,15.2601876 4.76818011,15.4493358 C4.76818011,15.6386041 4.92049531,15.7909193 5.1097636,15.7909193 L17.3059362,15.7909193 C17.4950844,15.7909193 17.6475197,15.6386041 17.6475197,15.4493358 C17.6475197,15.2601876 17.4950844,15.1077523 17.3059362,15.1077523 Z M5.1097636,8.98392495 L10.4496811,8.98392495 C10.6389493,8.98392495 10.7912645,8.83160976 10.7912645,8.64234146 C10.7912645,8.45310319 10.6389493,8.30078799 10.4496811,8.30078799 L5.1097636,8.30078799 C4.92049531,8.30078799 4.76818011,8.45310319 4.76818011,8.64234146 C4.76818011,8.83148968 4.92049531,8.98392495 5.1097636,8.98392495 Z M6.09275797,12.9403077 L7.69735084,12.9403077 C8.42728705,12.9403077 9.02192871,12.3481576 9.02192871,11.6183114 C9.02192871,10.8883752 8.42728705,10.2961951 7.69735084,10.2961951 L6.09275797,10.2961951 C5.36279174,10.2961951 4.76818011,10.8883752 4.76818011,11.6183114 C4.76818011,12.3481576 5.36279174,12.9403077 6.09275797,12.9403077 Z" id="Fill-3" fill="#487AF1"></path>
                </g>
            </g>
        </g>
    </g>
</svg>