<?xml version="1.0" encoding="UTF-8"?>
<svg width="40px" height="40px" viewBox="0 0 40 40" version="1.1" xmlns="http://www.w3.org/2000/svg" xmlns:xlink="http://www.w3.org/1999/xlink">
    <!-- Generator: Sketch 52 (66869) - http://www.bohemiancoding.com/sketch -->
    <title>出生年月icon</title>
    <desc>Created with Sketch.</desc>
    <defs>
        <polygon id="path-1" points="0.00146341463 0.0195121951 19.9804634 0.0195121951 19.9804634 19.9999756 0.00146341463 19.9999756"></polygon>
    </defs>
    <g id="出生年月icon" stroke="none" stroke-width="1" fill="none" fill-rule="evenodd">
        <g id="分组-5-copy">
            <rect id="矩形" x="0" y="0" width="40" height="40"></rect>
            <g id="yonghu-" transform="translate(10.000000, 10.000000)">
                <mask id="mask-2" fill="white">
                    <use xlink:href="#path-1"></use>
                </mask>
                <g id="Clip-2"></g>
                <path d="M9.99029268,19.9999756 C4.4727561,19.9999756 0,15.5272195 0,10.0098049 C0,4.49226829 4.4727561,0.0195121951 9.99029268,0.0195121951 C15.5077073,0.0195121951 19.9804634,4.49226829 19.9804634,10.0098049 C19.9804634,15.5272195 15.5077073,19.9999756 9.99029268,19.9999756 Z M9.99029268,1.68663415 C5.3934878,1.68663415 1.66712195,5.413 1.66712195,10.0098049 C1.66712195,14.6064878 5.3934878,18.332878 9.99029268,18.332878 C14.5869756,18.332878 18.3133659,14.6064878 18.3133659,10.0098049 C18.3133659,5.413 14.5869756,1.68663415 9.99029268,1.68663415 Z" id="Fill-1" fill="#487AF1" mask="url(#mask-2)"></path>
            </g>
            <path d="M16.7125479,21.4313192 C17.1797469,21.4313192 17.4983245,21.2647495 17.8100997,20.972233 C17.9266823,20.8470812 18.0825479,20.8470812 18.1991304,20.972233 C18.6245141,21.2959344 19.1439824,21.4718684 19.6785278,21.4731935 C20.2080672,21.4731935 20.7244288,21.2985111 21.1574541,20.972233 C21.2741545,20.8883812 21.4314629,20.8887199 21.5478099,20.9731017 C21.8578772,21.2647495 22.1768523,21.4317168 22.6440956,21.4317168 C23.5780814,21.4317168 24.3565992,20.7215318 24.3565992,19.8033151 C24.3565992,19.0098379 23.7339469,18.3419248 22.9554144,18.216773 C22.8383753,18.216773 22.7606782,18.1748987 22.6440367,18.1748987 L20.6902109,18.1748987 C20.4959311,18.1748987 20.3784798,18.0079315 20.3784798,17.8409642 L20.3784798,17.4249596 C20.3784798,17.2157206 20.2230118,17.0905687 20.0675585,17.0905687 L19.3278672,17.0905687 C19.1331752,17.0905687 19.0161361,17.2580071 19.0161361,17.4249596 L19.0161361,17.8827797 C19.0161361,18.091209 18.8606682,18.216773 18.7052002,18.216773 L16.7125479,18.216773 C16.59598,18.216773 16.5182092,18.216773 16.4012291,18.2586474 C15.5837669,18.3837403 15,19.0517123 15,19.8451747 C15,20.7215318 15.7785767,21.4317168 16.7125479,21.4317168 L16.7125479,21.4313192 Z M20.3788773,16.0054437 C20.3788773,15.7547425 20.1064292,15.1286302 19.9120906,14.6691463 C19.874707,14.5508411 19.7484656,14.4852763 19.6302192,14.5227187 C19.5604434,14.5448043 19.5058036,14.5993853 19.4837769,14.6691463 C19.2894382,15.1286302 19.0165926,15.7547425 19.0165926,16.0054437 C19.0165926,16.4230679 19.3283236,16.7151722 19.6785278,16.7151722 C20.0675585,16.7151722 20.3788773,16.3812525 20.3788773,16.0054437 Z M21.1574541,21.8315105 C20.7679669,22.1654303 20.2618972,22.1415042 19.6785278,22.1415042 C19.0942898,22.1415042 18.5493346,22.1654303 18.1991304,21.8315105 C18.0821503,21.7482183 17.9655677,21.7482183 17.8489851,21.8315105 C17.4987809,22.1654303 17.1015786,22.1415042 16.5570946,22.1415042 C16.1560493,22.1446698 15.763161,22.0283817 15.4283725,21.8075844 C15.272507,21.6820204 15.0388854,21.8075844 15.0388854,22.0578292 L15.0388854,22.9674767 C15.0388854,23.9689856 15.8174032,24.762448 16.7514333,24.762448 L22.682981,24.762448 C23.6169521,24.762448 24.3954699,23.9689856 24.3954699,22.9670791 L24.3954699,22.0578292 C24.3954699,21.8489876 24.1619072,21.7238947 24.0064392,21.8075844 C23.694664,22.0159548 23.3056333,22.1415631 22.8772607,22.1415631 C22.2546084,22.1415631 21.8582747,22.1654303 21.5076583,21.8315105 C21.4299022,21.7481742 21.2744489,21.7481742 21.1574541,21.8315105 Z" id="Fill-1" fill="#736EF7"></path>
        </g>
    </g>
</svg>