<?xml version="1.0" encoding="UTF-8"?>
<svg width="40px" height="40px" viewBox="0 0 40 40" version="1.1" xmlns="http://www.w3.org/2000/svg" xmlns:xlink="http://www.w3.org/1999/xlink">
    <!-- Generator: Sketch 52 (66869) - http://www.bohemiancoding.com/sketch -->
    <title>邮箱信息和绑定邮箱icon</title>
    <desc>Created with Sketch.</desc>
    <defs>
        <polygon id="path-1" points="0.00146341463 0.0195121951 19.9804634 0.0195121951 19.9804634 19.9999756 0.00146341463 19.9999756"></polygon>
    </defs>
    <g id="邮箱信息和绑定邮箱icon" stroke="none" stroke-width="1" fill="none" fill-rule="evenodd">
        <g id="分组-5-copy-3">
            <rect id="矩形" x="0" y="0" width="40" height="40"></rect>
            <g id="yonghu-" transform="translate(10.000000, 10.000000)">
                <mask id="mask-2" fill="white">
                    <use xlink:href="#path-1"></use>
                </mask>
                <g id="Clip-2"></g>
                <path d="M9.99029268,19.9999756 C4.4727561,19.9999756 0,15.5272195 0,10.0098049 C0,4.49226829 4.4727561,0.0195121951 9.99029268,0.0195121951 C15.5077073,0.0195121951 19.9804634,4.49226829 19.9804634,10.0098049 C19.9804634,15.5272195 15.5077073,19.9999756 9.99029268,19.9999756 Z M9.99029268,1.68663415 C5.3934878,1.68663415 1.66712195,5.413 1.66712195,10.0098049 C1.66712195,14.6064878 5.3934878,18.332878 9.99029268,18.332878 C14.5869756,18.332878 18.3133659,14.6064878 18.3133659,10.0098049 C18.3133659,5.413 14.5869756,1.68663415 9.99029268,1.68663415 Z" id="Fill-1" fill="#487AF1" mask="url(#mask-2)"></path>
                <g id="分组-3" transform="translate(4.990232, 6.509744)">
                    <path d="M9.6295686,0.561187498 L9.6295686,6.28276276 L6.18396674,3.84154376 C7.3325092,3.38385333 8.48105166,2.31578188 9.6295686,0.561187498 Z M9.17019755,6.66420958 L0.747680422,6.66420958 L4.42295505,4.07035084 C4.80580254,4.14672155 5.18862451,4.14672155 5.571472,4.07035084 L9.17019755,6.66420958 Z M0.288309368,6.28276276 L0.288309368,0.561187498 C1.43682631,2.31578188 2.58536877,3.38385333 3.73380917,3.84154376 L0.288309368,6.28276276 Z" id="Fill-1" fill="#BAD4FF"></path>
                    <path d="M0.594582254,0.0271009275 L9.32329572,0.0271009275 C6.41371606,4.60443741 3.50416191,4.60443741 0.594582254,0.0271009275 Z" id="路径" fill="#4E8CEE"></path>
                </g>
            </g>
        </g>
    </g>
</svg>