<?xml version="1.0" encoding="UTF-8"?>
<svg width="40px" height="40px" viewBox="0 0 40 40" version="1.1" xmlns="http://www.w3.org/2000/svg" xmlns:xlink="http://www.w3.org/1999/xlink">
    <!-- Generator: Sketch 52 (66869) - http://www.bohemiancoding.com/sketch -->
    <title>性别icon</title>
    <desc>Created with Sketch.</desc>
    <defs>
        <polygon id="path-1" points="0.00146341463 0.0195121951 19.9804634 0.0195121951 19.9804634 19.9999756 0.00146341463 19.9999756"></polygon>
    </defs>
    <g id="性别icon" stroke="none" stroke-width="1" fill="none" fill-rule="evenodd">
        <g id="分组-5-copy-2">
            <rect id="矩形" x="0" y="0" width="40" height="40"></rect>
            <g id="yonghu-" transform="translate(10.000000, 10.000000)">
                <mask id="mask-2" fill="white">
                    <use xlink:href="#path-1"></use>
                </mask>
                <g id="Clip-2"></g>
                <path d="M9.99029268,19.9999756 C4.4727561,19.9999756 0,15.5272195 0,10.0098049 C0,4.49226829 4.4727561,0.0195121951 9.99029268,0.0195121951 C15.5077073,0.0195121951 19.9804634,4.49226829 19.9804634,10.0098049 C19.9804634,15.5272195 15.5077073,19.9999756 9.99029268,19.9999756 Z M9.99029268,1.68663415 C5.3934878,1.68663415 1.66712195,5.413 1.66712195,10.0098049 C1.66712195,14.6064878 5.3934878,18.332878 9.99029268,18.332878 C14.5869756,18.332878 18.3133659,14.6064878 18.3133659,10.0098049 C18.3133659,5.413 14.5869756,1.68663415 9.99029268,1.68663415 Z" id="Fill-1" fill="#487AF1" mask="url(#mask-2)"></path>
            </g>
            <path d="M23.2233191,19.292587 L23.2211015,16.5216408 L24.1103679,17.4253217 C24.2034941,17.5195706 24.3266137,17.5672772 24.4496779,17.5672772 C24.5694294,17.5672772 24.690276,17.5218021 24.7823211,17.4308935 C24.9685598,17.246817 24.9719139,16.9463293 24.7878375,16.7589541 L23.4029604,15.3529541 C23.3242348,15.2498763 23.143457,15.0624318 22.8518536,15.0291952 C22.6733489,15.0069913 22.3972412,15.0425148 22.1145082,15.3252339 C21.7519271,15.6889516 20.7040731,16.7622528 20.7040731,16.7622528 L20.7063045,16.7644704 C20.6231437,16.8498488 20.5710573,16.9663156 20.5710573,17.0948961 C20.5710573,17.3576981 20.7839352,17.5694948 21.0467372,17.5694948 C21.1797668,17.5694948 21.2995184,17.5140543 21.3849107,17.4264582 C21.3849107,17.4264582 21.8528427,16.9463293 22.2708644,16.5205597 L22.2730959,19.2936681 C20.8837143,19.522097 19.82261,20.7262518 19.8236911,22.1810255 C19.8248276,23.7976718 21.1365648,25.1071913 22.7531556,25.1049737 C24.3698158,25.1027561 25.6793214,23.7921 25.6771038,22.1754953 C25.6760227,20.7207216 24.613768,19.5187983 23.2233191,19.292587 Z M22.7609589,24.066004 C21.7386075,24.066004 20.9092169,23.2376946 20.9092169,22.2142621 C20.9092169,21.1908297 21.7375264,20.3625895 22.7609589,20.3625895 C23.7832548,20.3625895 24.6126315,21.1908297 24.6126315,22.2142621 C24.6126315,23.2376946 23.7832548,24.066004 22.7609589,24.066004 Z M19.1351195,21.996949 L17.7291889,21.9980856 L17.7280523,20.8338341 L17.7280523,20.7018856 C19.1174201,20.4734706 20.1785244,19.2693158 20.1773879,17.8145421 C20.1763068,16.1978819 18.8645835,14.8883762 17.2479233,14.8905938 C15.6312632,14.8917304 14.321813,16.2034121 14.3228941,17.8200584 C14.3239751,19.2748321 15.3873664,20.4767693 16.7766787,20.7029667 L16.7766787,20.8349152 L16.7778152,21.9991667 L15.3341435,22.0003032 C15.0713414,22.0003032 14.8595447,22.213181 14.8595447,22.4759831 C14.8595447,22.7387297 15.0724225,22.9505264 15.3352245,22.9505264 L16.7788963,22.9494453 L16.7800329,24.6348102 C16.7800329,24.8976122 16.9929246,25.109409 17.2557266,25.109409 C17.5184732,25.109409 17.7302699,24.8965311 17.7302699,24.6337291 L17.7291889,22.9483088 L19.1351195,22.9472277 C19.3979215,22.9472277 19.6097183,22.7343499 19.6097183,22.4715478 C19.6097183,22.2098823 19.396785,21.996949 19.1351195,21.996949 Z M17.2656782,19.7139213 C16.2433407,19.7139213 15.4139501,18.8856118 15.4139501,17.8621793 C15.4139501,16.8387469 16.2422457,16.0105067 17.2656782,16.0105067 C18.2891106,16.0105067 19.1174201,16.8387469 19.1174201,17.8621793 C19.1174201,18.8856118 18.2879741,19.7139213 17.2656782,19.7139213 Z" id="Fill-1" fill="#736EF7"></path>
        </g>
    </g>
</svg>