<?xml version="1.0" encoding="UTF-8"?>
<svg width="40px" height="40px" viewBox="0 0 40 40" version="1.1" xmlns="http://www.w3.org/2000/svg" xmlns:xlink="http://www.w3.org/1999/xlink">
    <!-- Generator: Sketch 52 (66869) - http://www.bohemiancoding.com/sketch -->
    <title>身份证号icon</title>
    <desc>Created with Sketch.</desc>
    <g id="身份证号icon" stroke="none" stroke-width="1" fill="none" fill-rule="evenodd">
        <g id="分组-5">
            <rect id="矩形" x="0" y="0" width="40" height="40"></rect>
            <path d="M26.6250921,23.338941 L26.6250921,16.680559 C26.6250921,16.0813042 26.125701,15.3488777 25.6929384,15.3488777 L15.2392641,15.3488777 C13.841003,15.3488777 13.3749079,16.0480082 13.3749079,16.680559 L13.3749079,23.338941 C13.3749079,24.0713553 14.0074586,24.6706101 14.773169,24.6706101 L25.260127,24.6706101 C26.0258252,24.6706101 26.6250921,24.0713553 26.6250921,23.338941 Z M17.0414946,23.2943119 C16.0464489,23.294408 15.1053628,22.8419835 14.4840836,22.0647692 C15.1052667,21.2873507 16.0463649,20.8347462 17.0414946,20.8347462 C18.0365763,20.8347462 18.9776624,21.2873507 19.5988935,22.0647692 C18.9778545,22.8423557 18.0366123,23.2948763 17.0414946,23.2943119 Z M17.0414946,20.4264115 C16.1370178,20.4264115 15.4037012,19.6935631 15.4031368,18.7891464 C15.4025725,17.8846817 16.1350007,17.1508967 17.0394294,17.1497681 C17.943846,17.1486394 18.6780993,17.8805993 18.6797923,18.785016 C18.6797923,19.6898649 17.9462835,20.4233617 17.0414946,20.4233617 L17.0414946,20.4264115 Z M21.5646984,22.8728337 L24.9605119,22.8728337 L24.9605119,22.0405557 L21.5646984,22.0405557 L21.5646984,22.8728337 Z M21.5646984,20.3426917 L24.9605119,20.3426917 L24.9605119,19.5103528 L21.5646984,19.5103528 L21.5646984,20.3426917 Z M21.5646984,17.8457847 L24.9605119,17.8457847 L24.9605119,17.0134946 L21.5646984,17.0134946 L21.5646984,17.8457847 Z" id="shenfenzheng-2" fill="#487AF1"></path>
            <path d="M19.9902927,29.9999756 C14.4727561,29.9999756 10,25.5272195 10,20.0098049 C10,14.4922683 14.4727561,10.0195122 19.9902927,10.0195122 C25.5077073,10.0195122 29.9804634,14.4922683 29.9804634,20.0098049 C29.9804634,25.5272195 25.5077073,29.9999756 19.9902927,29.9999756 Z M19.9902927,11.6866341 C15.3934878,11.6866341 11.667122,15.413 11.667122,20.0098049 C11.667122,24.6064878 15.3934878,28.332878 19.9902927,28.332878 C24.5869756,28.332878 28.3133659,24.6064878 28.3133659,20.0098049 C28.3133659,15.413 24.5869756,11.6866341 19.9902927,11.6866341 Z" id="合并形状" fill="#487AF1"></path>
        </g>
    </g>
</svg>