<?xml version="1.0" encoding="UTF-8"?>
<svg width="40px" height="40px" viewBox="0 0 40 40" version="1.1" xmlns="http://www.w3.org/2000/svg" xmlns:xlink="http://www.w3.org/1999/xlink">
    <!-- Generator: Sketch 52 (66869) - http://www.bohemiancoding.com/sketch -->
    <title>手机相关icon</title>
    <desc>Created with Sketch.</desc>
    <defs>
        <polygon id="path-1" points="0.00146341463 0.0195121951 14.9853171 0.0195121951 14.9853171 19.9999756 0.00146341463 19.9999756"></polygon>
    </defs>
    <g id="手机相关icon" stroke="none" stroke-width="1" fill="none" fill-rule="evenodd">
        <g id="分组-2">
            <rect id="矩形" x="0" y="0" width="40" height="40"></rect>
            <g id="B-shoujihao" transform="translate(12.500000, 10.000000)">
                <mask id="mask-2" fill="white">
                    <use xlink:href="#path-1"></use>
                </mask>
                <g id="Clip-2"></g>
                <path d="M10.2280976,0.0195121951 L2.37870732,0.0195121951 C1.06517073,0.0195121951 0,1.13792683 0,2.51702439 L0,15.0048293 C0,17.7635122 2.13014634,19.9999756 4.7572439,19.9999756 L12.607,19.9999756 C13.9203415,19.9999756 14.9853171,18.8819268 14.9853171,17.5024634 L14.9853171,5.01465854 C14.9853171,2.25597561 12.855561,0.0195121951 10.2280976,0.0195121951 Z M13.5578293,17.5024634 C13.5578293,18.0532439 13.1310976,18.5015122 12.6068049,18.5015122 L4.7572439,18.5015122 C2.92139024,18.5015122 1.42712195,16.9330976 1.42712195,15.0050244 L1.42712195,13.1317561 L13.5578293,13.1317561 L13.5578293,17.5024634 Z M13.5578293,11.6333659 L1.42712195,11.6333659 L1.42712195,2.51702439 C1.42712195,1.9662439 1.85421951,1.51807317 2.37853659,1.51807317 L10.2280976,1.51807317 C12.0645854,1.51807317 13.5580244,3.08668293 13.5580244,5.01465854 L13.5578293,11.6333659 Z M7.61165854,17.6273659 C8.40034146,17.6273659 9.03887805,16.9560488 9.03887805,16.1286098 C9.03887805,15.3010488 8.40034146,14.6302195 7.61165854,14.6302195 C6.82297561,14.6302195 6.18541463,15.3012439 6.18541463,16.1287805 C6.18541463,16.9562439 6.82326829,17.6273659 7.61165854,17.6273659 Z" id="Fill-1" fill="#487AF1" mask="url(#mask-2)"></path>
            </g>
        </g>
    </g>
</svg>