<?xml version="1.0" encoding="UTF-8"?>
<svg width="40px" height="40px" viewBox="0 0 40 40" version="1.1" xmlns="http://www.w3.org/2000/svg" xmlns:xlink="http://www.w3.org/1999/xlink">
    <!-- Generator: Sketch 52 (66869) - http://www.bohemiancoding.com/sketch -->
    <title>密码相关icon</title>
    <desc>Created with Sketch.</desc>
    <defs>
        <polygon id="path-1" points="0.00146341463 0.0195121951 19.9804634 0.0195121951 19.9804634 19.9999756 0.00146341463 19.9999756"></polygon>
        <polygon id="path-3" points="0.000729538129 0.00721026851 9.59171198 0.00721026851 9.59171198 6.94275904 0.000729538129 6.94275904"></polygon>
    </defs>
    <g id="密码相关icon" stroke="none" stroke-width="1" fill="none" fill-rule="evenodd">
        <g id="分组-5-copy">
            <rect id="矩形" x="0" y="0" width="40" height="40"></rect>
            <g id="yonghu-" transform="translate(10.000000, 10.000000)">
                <mask id="mask-2" fill="white">
                    <use xlink:href="#path-1"></use>
                </mask>
                <g id="Clip-2"></g>
                <path d="M9.99029268,19.9999756 C4.4727561,19.9999756 0,15.5272195 0,10.0098049 C0,4.49226829 4.4727561,0.0195121951 9.99029268,0.0195121951 C15.5077073,0.0195121951 19.9804634,4.49226829 19.9804634,10.0098049 C19.9804634,15.5272195 15.5077073,19.9999756 9.99029268,19.9999756 Z M9.99029268,1.68663415 C5.3934878,1.68663415 1.66712195,5.413 1.66712195,10.0098049 C1.66712195,14.6064878 5.3934878,18.332878 9.99029268,18.332878 C14.5869756,18.332878 18.3133659,14.6064878 18.3133659,10.0098049 C18.3133659,5.413 14.5869756,1.68663415 9.99029268,1.68663415 Z" id="Fill-1" fill="#487AF1" mask="url(#mask-2)"></path>
            </g>
            <g id="ziyuan-2" transform="translate(15.000000, 14.500000)">
                <g id="分组" transform="translate(0.000000, 3.027583)">
                    <mask id="mask-4" fill="white">
                        <use xlink:href="#path-3"></use>
                    </mask>
                    <g id="Clip-2"></g>
                    <path d="M7.65568801,0.00721026851 L1.93603613,0.00721026851 C0.868466507,0.0112470462 0.00403677765,0.875725411 0,1.94328287 L0,5.00673507 C0.00403677765,6.07429253 0.868466507,6.93872226 1.93603613,6.94275904 L7.65568801,6.94275904 C8.72325763,6.93872226 9.5876752,6.07429253 9.59171198,5.00673507 L9.59171198,1.94328287 C9.5876752,0.875725411 8.72325763,0.0112470462 7.65568801,0.00721026851 Z M9.40724827,5.29299367 C9.40563112,5.83183053 8.96923357,6.26827672 8.43039671,6.2698817 L2.7107813,6.2698817 C2.17194444,6.26827672 1.73549826,5.83183053 1.73389327,5.29299367 L1.73389327,1.72190453 C1.73549826,1.18306767 2.17194444,0.746670116 2.7107813,0.745065132 L8.43039671,0.745065132 C8.96923357,0.746670116 9.40563112,1.18306767 9.40724827,1.72190453 L9.40724827,5.29299367 Z" id="Fill-1" fill="#ECECFE" mask="url(#mask-4)"></path>
                    <path d="M7.65568801,0.00721026851 L1.93603613,0.00721026851 C0.868466507,0.0112470462 0.00403677765,0.875725411 0,1.94328287 L0,5.00673507 C0.00403677765,6.07429253 0.868466507,6.93872226 1.93603613,6.94275904 L7.65568801,6.94275904 C8.72325763,6.93872226 9.5876752,6.07429253 9.59171198,5.00673507 L9.59171198,1.94328287 C9.5876752,0.875725411 8.72325763,0.0112470462 7.65568801,0.00721026851 Z" id="Fill-3" fill="#487AF1" mask="url(#mask-4)"></path>
                </g>
                <path d="M7.00931723,2.66589039 C6.91147401,2.66589039 6.81766756,2.62704248 6.74847087,2.55783363 C6.67926202,2.48863694 6.64041412,2.3948305 6.64041412,2.29698728 C6.64041412,1.4425887 5.81255857,0.747533403 4.79586207,0.747533403 C3.77915342,0.747533403 2.95131002,1.4425887 2.95131002,2.29698728 C2.95126139,2.50069864 2.78611827,2.66584175 2.58240691,2.66584175 C2.37864691,2.66584175 2.2135038,2.50069864 2.21345516,2.29698728 C2.21345516,1.04266805 3.37182796,0.00972717505 4.79586207,0.00972717505 C6.21983539,0.00972717505 7.37825682,1.04266805 7.37825682,2.29698728 C7.37825682,2.50074728 7.21306507,2.66589039 7.00931723,2.66589039 Z" id="Fill-4" fill="#736EF7"></path>
                <path d="M2.17660133,5.1007239 C2.17660133,5.34519212 2.37479252,5.54338331 2.61926074,5.54338331 C2.86376545,5.54338331 3.0619688,5.34519212 3.0619688,5.1007239 C3.0619688,4.85621919 2.86376545,4.65801584 2.61926074,4.65801584 C2.37479252,4.65801584 2.17660133,4.85621919 2.17660133,5.1007239 Z" id="Fill-5" fill="#FFFFFF"></path>
                <path d="M6.60351165,5.1007239 C6.60351165,5.34519212 6.80170284,5.54338331 7.0462197,5.54338331 C7.2907244,5.54338331 7.48892776,5.34519212 7.48892776,5.1007239 C7.48892776,4.85621919 7.2907244,4.65801584 7.0462197,4.65801584 C6.80170284,4.65801584 6.60351165,4.85621919 6.60351165,5.1007239 Z" id="Fill-6" fill="#FFFFFF"></path>
                <path d="M4.79586207,5.69095672 C4.95240879,5.69095672 5.10253558,5.75317416 5.21325515,5.8638451 C5.32391393,5.97455251 5.38614353,6.12469145 5.38614353,6.28123818 C5.38675148,6.42485992 5.3341761,6.56365455 5.23857012,6.67079938 L5.09099672,6.83755964 L5.09099672,7.60932586 C5.09099672,7.772329 4.95886521,7.90446051 4.79586207,7.90446051 C4.63284678,7.90446051 4.50071526,7.772329 4.50071526,7.60932586 L4.50071526,6.83755964 L4.35315402,6.67079938 C4.25753588,6.56365455 4.2049605,6.42485992 4.20558061,6.28123818 C4.20558061,6.12469145 4.26779805,5.97455251 4.37846899,5.8638451 C4.4891764,5.75317416 4.63931535,5.69095672 4.79586207,5.69095672 Z M4.79586207,5.1007239 C4.33248377,5.10129537 3.91234276,5.37292673 3.72154422,5.79515908 C3.53075784,6.21745223 3.60466005,6.71226146 3.91048244,7.06036058 L3.91048244,7.60932586 C3.91048244,8.09828664 4.30688914,8.49469334 4.79586207,8.49469334 C5.284835,8.49469334 5.68122954,8.09828664 5.68122954,7.60932586 L5.68122954,7.06036058 C5.98705193,6.71226146 6.0609663,6.21745223 5.87016776,5.79515908 C5.67938138,5.37292673 5.25922821,5.10129537 4.79586207,5.1007239 Z" id="Fill-7" fill="#FFFFFF"></path>
            </g>
        </g>
    </g>
</svg>