<?xml version="1.0" encoding="UTF-8"?>
<svg width="40px" height="40px" viewBox="0 0 40 40" version="1.1" xmlns="http://www.w3.org/2000/svg" xmlns:xlink="http://www.w3.org/1999/xlink">
    <!-- Generator: Sketch 52 (66869) - http://www.bohemiancoding.com/sketch -->
    <title>上传凭证icon</title>
    <desc>Created with Sketch.</desc>
    <defs>
        <polygon id="path-1" points="0.00213176967 0.0156329776 19.1007273 0.0156329776 19.1007273 22.0637806 0.00213176967 22.0637806"></polygon>
    </defs>
    <g id="上传凭证icon" stroke="none" stroke-width="1" fill="none" fill-rule="evenodd">
        <g id="分组-7">
            <rect id="矩形" x="0" y="0" width="40" height="40"></rect>
            <g id="pingzheng" transform="translate(10.000000, 8.500000)">
                <mask id="mask-2" fill="white">
                    <use xlink:href="#path-1"></use>
                </mask>
                <g id="Clip-2"></g>
                <path d="M9.67539195,22.0637806 L18.5208504,22.0637806 L18.5208504,21.1542966 L9.67539195,21.1542966 L9.67539195,22.0637806 Z M11.9492796,11.5328739 C10.7583665,12.7210513 10.9515403,14.6822439 12.0117405,16.0095902 C12.25629,16.3166006 12.1454024,16.5097745 11.9975997,16.691721 C11.9492796,16.7514106 11.7616483,16.9618162 11.7219619,17.0157855 C11.5343306,17.2745113 11.4860105,17.6808621 11.5570695,17.9309542 C11.6593589,18.2805645 12.0117405,18.320393 12.2704307,18.3460809 C12.8730465,18.4057704 13.4870672,18.3659063 14.0952255,18.3659063 C14.6893498,18.3659063 15.2833674,18.3573082 15.877385,18.3687131 C16.2299086,18.3743979 16.5226006,18.2777932 16.6704033,17.9480439 C16.8268397,17.5956624 16.747147,17.2631063 16.4829142,16.9788704 C16.3890808,16.8793878 16.2923695,16.7827831 16.1957648,16.6860363 C15.9741318,16.4644033 15.9769031,16.2398569 16.1759038,16.0011342 C16.3577082,15.7793591 16.5482884,15.5547772 16.7016337,15.3103698 C17.5345161,14.0028844 17.2445599,12.2946973 16.0337858,11.3253817 C14.8144136,10.3504168 13.0463949,10.4414434 11.9492796,11.5328739 Z M19.1007273,19.8552317 C19.0978139,19.2157008 18.8249474,18.9116394 18.1967859,18.9116394 C15.4680852,18.9059546 12.7423335,18.9088681 10.0136327,18.9145528 C9.38824258,18.9145528 9.12400973,19.193104 9.11541159,19.8098605 C9.11260476,20.0968678 9.11541159,20.3840171 9.11541159,20.7051682 L19.1007273,20.7051682 L19.1007273,19.8552317 Z" id="Fill-1" fill="#736EF7" mask="url(#mask-2)"></path>
                <path d="M10.5224151,17.8997238 C10.4684458,17.3909415 10.6048435,16.8310677 10.9004845,16.4218034 C10.9232233,16.3904309 10.9458556,16.3592005 10.9799995,16.3193719 C10.4598121,15.5490925 10.1557507,14.6537847 10.1216069,13.758477 C10.0762357,12.6186198 10.4712171,11.5727025 11.2300916,10.813828 C11.991915,10.0520046 13.012251,9.63414221 14.1009103,9.63414221 C14.612606,9.63414221 15.1185105,9.73085349 15.5903777,9.91560687 L15.5903777,0.996318086 C15.5903777,0.459041069 15.1497054,0.0156329776 14.6096926,0.0156329776 L0.980685108,0.0156329776 C0.443408092,0.0156329776 0,0.456127651 0,0.996318086 L0,19.8297215 C0,20.366963 0.440494673,20.8103711 0.980685108,20.8103711 L8.10072476,20.8103711 L8.10072476,19.7984911 C8.10918077,19.2186142 8.27975788,18.7553451 8.61227842,18.4199111 C8.95066132,18.0759856 9.42238642,17.9026372 10.0108614,17.9026372 C10.1812964,17.8997238 10.351838,17.8997238 10.5224151,17.8997238 Z M2.88218813,4.64015199 C2.88218813,4.32177219 3.14364968,4.06031064 3.46202948,4.06031064 L10.9572251,4.06031064 C11.2756049,4.06031064 11.5371019,4.32177219 11.5371019,4.64015199 C11.5371019,4.95853179 11.2756049,5.21999334 10.9572251,5.21999334 L3.46202948,5.21999334 C3.14364968,5.21707992 2.88218813,4.95853179 2.88218813,4.64015199 Z M8.65214251,9.264671 C8.65214251,9.5830508 8.39064543,9.84454788 8.07226563,9.84454788 L3.46202948,9.84454788 C3.14364968,9.84454788 2.88218813,9.5830508 2.88218813,9.264671 C2.88218813,8.9462912 3.14364968,8.68482965 3.46202948,8.68482965 L8.07226563,8.68482965 C8.39064543,8.68482965 8.65214251,8.9462912 8.65214251,9.264671 Z M8.65214251,6.95095478 C8.65214251,7.26933458 8.39064543,7.53083166 8.07226563,7.53083166 L3.46202948,7.53083166 C3.14364968,7.53083166 2.88218813,7.26933458 2.88218813,6.95095478 C2.88218813,6.63257498 3.14364968,6.37111343 3.46202948,6.37111343 L8.07226563,6.37111343 C8.39064543,6.37402685 8.65214251,6.63257498 8.65214251,6.95095478 Z" id="Fill-3" fill="#487AF1" mask="url(#mask-2)"></path>
            </g>
        </g>
    </g>
</svg>