<?xml version="1.0" encoding="UTF-8"?>
<svg width="40px" height="40px" viewBox="0 0 40 40" version="1.1" xmlns="http://www.w3.org/2000/svg" xmlns:xlink="http://www.w3.org/1999/xlink">
    <!-- Generator: Sketch 52 (66869) - http://www.bohemiancoding.com/sketch -->
    <title>账户相关icon</title>
    <desc>Created with Sketch.</desc>
    <defs>
        <polygon id="path-1" points="0.00146341463 0.0195121951 19.9804634 0.0195121951 19.9804634 19.9999756 0.00146341463 19.9999756"></polygon>
    </defs>
    <g id="账户相关icon" stroke="none" stroke-width="1" fill="none" fill-rule="evenodd">
        <g id="分组-5">
            <rect id="矩形" x="0" y="0" width="40" height="40"></rect>
            <g id="yonghu-" transform="translate(10.000000, 10.000000)">
                <mask id="mask-2" fill="white">
                    <use xlink:href="#path-1"></use>
                </mask>
                <g id="Clip-2"></g>
                <path d="M9.99029268,19.9999756 C4.4727561,19.9999756 0,15.5272195 0,10.0098049 C0,4.49226829 4.4727561,0.0195121951 9.99029268,0.0195121951 C15.5077073,0.0195121951 19.9804634,4.49226829 19.9804634,10.0098049 C19.9804634,15.5272195 15.5077073,19.9999756 9.99029268,19.9999756 Z M9.99029268,1.68663415 C5.3934878,1.68663415 1.66712195,5.413 1.66712195,10.0098049 C1.66712195,14.6064878 5.3934878,18.332878 9.99029268,18.332878 C14.5869756,18.332878 18.3133659,14.6064878 18.3133659,10.0098049 C18.3133659,5.413 14.5869756,1.68663415 9.99029268,1.68663415 Z M9.99029268,16.6720488 C7.96902439,16.6722439 6.05736585,15.7532195 4.79534146,14.174439 C6.05717073,12.5952439 7.96885366,11.6758537 9.99029268,11.6758537 C12.0116341,11.6758537 13.9232927,12.5952439 15.1852195,14.174439 C13.9236829,15.7539756 12.0117073,16.6731951 9.99029268,16.6720488 Z M9.99029268,10.8463902 C8.153,10.8463902 6.66339024,9.35773171 6.6622439,7.52056098 C6.66109756,5.68329268 8.14890244,4.19273171 9.98609756,4.19043902 C11.8232683,4.18814634 13.3147805,5.675 13.3182195,7.51217073 C13.3182195,9.35021951 11.8282195,10.8401951 9.99029268,10.8401951 L9.99029268,10.8463902 Z" id="Fill-1" fill="#487AF1" mask="url(#mask-2)"></path>
            </g>
        </g>
    </g>
</svg>