<?xml version="1.0" encoding="UTF-8"?>
<svg width="40px" height="40px" viewBox="0 0 40 40" version="1.1" xmlns="http://www.w3.org/2000/svg" xmlns:xlink="http://www.w3.org/1999/xlink">
    <!-- Generator: Sketch 52 (66869) - http://www.bohemiancoding.com/sketch -->
    <title>验证码相关icon</title>
    <desc>Created with Sketch.</desc>
    <defs>
        <polygon id="path-1" points="0.00197044335 0.0165685983 19.9924466 0.0165685983 19.9924466 22.4302135 0.00197044335 22.4302135"></polygon>
    </defs>
    <g id="验证码相关icon" stroke="none" stroke-width="1" fill="none" fill-rule="evenodd">
        <g id="分组-4">
            <rect id="矩形" x="0" y="0" width="40" height="40"></rect>
            <g id="yanzhengma-2" transform="translate(10.000000, 9.000000)">
                <mask id="mask-2" fill="white">
                    <use xlink:href="#path-1"></use>
                </mask>
                <g id="Clip-2"></g>
                <path d="M18.8322167,2.76065681 C19.5249589,2.98426929 19.9907718,3.62325123 19.9924466,4.35293924 L19.9924466,10.1404598 C19.9924466,13.4883087 18.3832512,16.6662726 15.6862069,18.650312 L10.9883087,22.1056486 C10.6990148,22.3159278 10.3543186,22.4302135 9.99615764,22.4302135 C9.63464696,22.4302135 9.29326765,22.3159278 9.00413793,22.1056486 L4.3044335,18.650312 C1.60738916,16.6662726 1.0125234e-13,13.4866338 1.0125234e-13,10.1404598 L1.0125234e-13,4.35293924 C1.0125234e-13,3.62325123 0.464137931,2.98426929 1.15688013,2.76065681 L9.31021346,0.122495895 C9.75408867,-0.0170771757 10.2366831,-0.0203940887 10.6822003,0.122495895 L18.8322167,2.76065681 Z M18.6425492,10.171413 L18.6425492,4.54197951 C18.6425492,4.30482628 18.4903903,4.09537608 18.2629826,4.02348242 L10.3333354,1.4565272 C10.2253671,1.42058037 10.1109124,1.40262293 9.99795943,1.40262293 C9.88513431,1.40262293 9.77055179,1.41898274 9.66095389,1.4565272 L1.72804746,4.02348242 C1.50402681,4.09537608 1.35186787,4.30482628 1.35186787,4.54197951 L1.35186787,10.171413 C1.35186787,13.0834578 2.75392209,15.8516194 5.09819867,17.5775785 L9.67242493,20.939486 C9.86391769,21.0801419 10.132129,21.0768827 10.3202348,20.9427132 L14.8960906,17.5775785 C17.2421246,15.853249 18.6425492,13.0834578 18.6425492,10.171413 Z" id="合并形状" fill="#487AF1" mask="url(#mask-2)"></path>
                <path d="M14.9934647,6.31530378 L4.99898194,6.31530378 C4.69123153,6.31530378 4.44400657,6.56403941 4.44400657,6.87178982 C4.44400657,7.17609195 4.68955665,7.42663383 4.99898194,7.42663383 L9.44131363,7.42663383 L9.44131363,15.7111987 C9.44131363,16.0204926 9.68686371,16.2660427 9.99615764,16.2660427 C10.3005583,16.2660427 10.5511002,16.0204926 10.5511002,15.7111987 L10.5511002,7.42495895 L14.9934647,7.42495895 C15.30289,7.42495895 15.5482759,7.17609195 15.5482759,6.87011494 C15.5482759,6.56403941 15.3012151,6.31530378 14.9934647,6.31530378 Z" id="路径" fill="#487AF1" mask="url(#mask-2)"></path>
            </g>
        </g>
    </g>
</svg>