<?xml version="1.0" encoding="UTF-8"?>
<svg width="160px" height="40px" viewBox="0 0 160 40" version="1.1" xmlns="http://www.w3.org/2000/svg" xmlns:xlink="http://www.w3.org/1999/xlink">
    <!-- Generator: Sketch 52 (66869) - http://www.bohemiancoding.com/sketch -->
    <title>160x40高度按钮</title>
    <desc>Created with Sketch.</desc>
    <defs>
        <rect id="path-1" x="0" y="0" width="160" height="40"></rect>
        <linearGradient x1="12.5385648%" y1="11.4282648%" x2="101.999998%" y2="100.999999%" id="linearGradient-3">
            <stop stop-color="#8371F8" offset="0%"></stop>
            <stop stop-color="#7059F9" offset="100%"></stop>
        </linearGradient>
        <linearGradient x1="85.8099295%" y1="10.3763247%" x2="9.35804591%" y2="77.655493%" id="linearGradient-4">
            <stop stop-color="#3828D3" offset="0%"></stop>
            <stop stop-color="#A1E2E2" stop-opacity="0.113139719" offset="100%"></stop>
        </linearGradient>
        <linearGradient x1="12.4834144%" y1="100.944849%" x2="102.055149%" y2="11.4834153%" id="linearGradient-5">
            <stop stop-color="#696EF6" offset="0%"></stop>
            <stop stop-color="#5F56F7" offset="100%"></stop>
        </linearGradient>
        <linearGradient x1="12.5385648%" y1="11.4282648%" x2="101.999998%" y2="100.999999%" id="linearGradient-6">
            <stop stop-color="#3023AE" offset="0%"></stop>
            <stop stop-color="#A1E2E2" offset="100%"></stop>
        </linearGradient>
    </defs>
    <g id="Page-1" stroke="none" stroke-width="1" fill="none" fill-rule="evenodd">
        <g id="购物车-矿机" transform="translate(-951.000000, -452.000000)">
            <g id="160x40高度按钮" transform="translate(951.000000, 452.000000)">
                <mask id="mask-2" fill="white">
                    <use xlink:href="#path-1"></use>
                </mask>
                <use id="Mask" fill="#487AF1" xlink:href="#path-1"></use>
                <g id="Group-child" mask="url(#mask-2)">
                    <g transform="translate(-70.698018, -137.576274)">
                        <path d="M142.549634,143.226967 L243.413135,157.636039 C244.29309,157.761746 244.984484,158.45314 245.110191,159.333095 L264.04955,291.908602 C264.205759,293.00207 263.445961,294.015134 262.352493,294.171343 C262.164884,294.198145 261.974417,294.198145 261.786808,294.171343 L160.923307,279.762272 C160.043352,279.636564 159.351958,278.945171 159.22625,278.065216 L140.286892,145.489709 C140.130683,144.396241 140.890481,143.383177 141.983949,143.226967 C142.171558,143.200166 142.362025,143.200166 142.549634,143.226967 Z" id="Rectangle-2-Copy-4" fill="url(#linearGradient-3)" opacity="0.488374256" transform="translate(202.168221, 218.699155) rotate(-315.000000) translate(-202.168221, -218.699155) "></path>
                        <path d="M13.6241155,143.930701 L114.487617,158.339772 C115.367572,158.46548 116.058965,159.156874 116.184673,160.036829 L135.124031,292.612336 C135.280241,293.705804 134.520443,294.718868 133.426975,294.875077 C133.239365,294.901879 133.048899,294.901879 132.861289,294.875077 L31.9977882,280.466006 C31.117833,280.340298 30.4264398,279.648905 30.3007319,278.768949 L11.3613738,146.193443 C11.205164,145.099975 11.964962,144.086911 13.05843,143.930701 C13.2460395,143.903899 13.436506,143.903899 13.6241155,143.930701 Z" id="Rectangle-2-Copy-5" fill="url(#linearGradient-4)" opacity="0.332333519" transform="translate(73.242702, 219.402889) rotate(-315.000000) translate(-73.242702, -219.402889) "></path>
                        <path d="M96.6533338,43.7010578 L197.516835,29.2919862 C198.610303,29.1357765 199.623367,29.8955745 199.779577,30.9890425 C199.806378,31.1766519 199.806378,31.3671185 199.779577,31.5547279 L180.840218,164.130235 C180.714511,165.01019 180.023117,165.701583 179.143162,165.827291 L78.2796611,180.236363 C77.186193,180.392572 76.1731291,179.632774 76.0169194,178.539306 C75.990118,178.351697 75.990118,178.16123 76.0169194,177.973621 L94.9562775,45.3981141 C95.0819854,44.518159 95.7733787,43.8267657 96.6533338,43.7010578 Z" id="Rectangle-2-Copy-6" fill="url(#linearGradient-5)" opacity="0.156901042" transform="translate(137.898248, 104.764174) rotate(-225.000000) translate(-137.898248, -104.764174) "></path>
                        <path d="M203.340065,30.8469622 L287.195588,18.8676018 C288.289056,18.7113921 289.30212,19.4711901 289.458329,20.5646581 C289.485131,20.7522675 289.485131,20.9427341 289.458329,21.1303435 L273.682583,131.560565 C273.556876,132.44052 272.865482,133.131913 271.985527,133.257621 L188.130004,145.236982 C187.036536,145.393191 186.023472,144.633393 185.867263,143.539925 C185.840461,143.352316 185.840461,143.161849 185.867263,142.97424 L201.643009,32.5440185 C201.768716,31.6640634 202.46011,30.9726701 203.340065,30.8469622 Z" id="Rectangle-2-Copy-7" fill="url(#linearGradient-6)" opacity="0.400000006" transform="translate(237.662796, 82.052292) rotate(-225.000000) translate(-237.662796, -82.052292) "></path>
                    </g>
                </g>
            </g>
        </g>
    </g>
</svg>